<?xml version="1.0" encoding="utf-8"?>
<!-- Generator: Adobe Illustrator 26.5.0, SVG Export Plug-In . SVG Version: 6.00 Build 0)  -->
<svg version="1.1" id="Ebene_1" xmlns="http://www.w3.org/2000/svg" xmlns:xlink="http://www.w3.org/1999/xlink" x="0px" y="0px"
	 viewBox="0 0 100 100" style="enable-background:new 0 0 100 100;" xml:space="preserve">
<style type="text/css">
	.st0{fill:#003764;}
	.st1{fill:#B86300;}
	.st2{fill:url(#SVGID_1_);}
	.st3{fill:url(#SVGID_00000152958340840208153090000016207085170324848057_);}
	.st4{fill:url(#SVGID_00000061432508302845655610000004145460087189471419_);}
	.st5{fill:none;}
</style>
<g>
	<polygon class="st0" points="70.4,1.8 29.6,1.8 39.8,20.9 60.2,20.9 	"/>
</g>
<path class="st1" d="M84.5,17.3L74.4,1.8L55.9,36.3c6.1,1.1,11.6,3.9,16,7.9l12.7-23.7C85.2,19.5,85.1,18.3,84.5,17.3z"/>
<linearGradient id="SVGID_1_" gradientUnits="userSpaceOnUse" x1="74.2169" y1="44.3743" x2="16.0222" y2="102.5689">
	<stop  offset="7.956892e-02" style="stop-color:#B56300"/>
	<stop  offset="0.2973" style="stop-color:#F5C080"/>
	<stop  offset="0.8376" style="stop-color:#B76400"/>
</linearGradient>
<circle class="st2" cx="50" cy="68.6" r="29.7"/>
<linearGradient id="SVGID_00000034061041675283686820000010839200943525870737_" gradientUnits="userSpaceOnUse" x1="72.4851" y1="41.9128" x2="19.3468" y2="104.9731">
	<stop  offset="0.4713" style="stop-color:#CA6C00"/>
	<stop  offset="1" style="stop-color:#904E00"/>
</linearGradient>
<circle style="fill:url(#SVGID_00000034061041675283686820000010839200943525870737_);" cx="50" cy="68.6" r="26.8"/>
<linearGradient id="SVGID_00000047033503868684059020000006882332606231347892_" gradientUnits="userSpaceOnUse" x1="69.2158" y1="51.5787" x2="22.8818" y2="92.5921">
	<stop  offset="7.956892e-02" style="stop-color:#B56300"/>
	<stop  offset="0.2973" style="stop-color:#F5C080"/>
	<stop  offset="0.8376" style="stop-color:#B76400"/>
</linearGradient>
<circle style="fill:url(#SVGID_00000047033503868684059020000006882332606231347892_);" cx="50" cy="68.6" r="21.5"/>
<circle class="st5" cx="50" cy="68.6" r="26.8"/>
<path class="st1" d="M44.1,36.3L25.6,1.8L15.5,17.3c-0.6,1-0.7,2.2-0.1,3.2l12.7,23.7C32.5,40.2,38,37.4,44.1,36.3z"/>
</svg>
